<svg xmlns="http://www.w3.org/2000/svg" width="475" height="128" viewBox="0 0 475 128">
    <g fill="none" fill-rule="evenodd">
        <path fill="#079ECF" d="M313.665-171.435c69.145 36.765 81.62 90.818 47.668 154.675-33.954 63.858-85.742 83.74-154.887 46.975-69.145-36.765-81.62-90.817-47.667-154.675 33.953-63.857 85.741-83.74 154.886-46.975M216.965 68.804c30.543 16.24 36.054 40.118 21.055 68.326-14.998 28.208-37.874 36.991-68.418 20.75-30.544-16.24-36.054-40.117-21.056-68.324 14.999-28.209 37.875-36.992 68.419-20.752"/>
        <path fill="#2BB5E6" d="M77.117-9.716C107.66 6.524 113.17 30.4 98.173 58.609 83.174 86.817 60.298 95.6 29.754 79.36-.79 63.12-6.3 39.244 8.698 11.036 23.697-17.173 46.573-25.957 77.117-9.716M480.531-9.885c30.544 16.24 36.055 40.117 21.056 68.326-14.998 28.207-37.875 36.99-68.418 20.75-30.544-16.24-36.055-40.117-21.056-68.325 14.998-28.208 37.875-36.992 68.418-20.751"/>
        <path fill="#13BCE7" d="M349.346 71.708c13.02 6.922 15.368 17.1 8.975 29.124-6.393 12.024-16.145 15.769-29.165 8.846s-15.368-17.101-8.975-29.125c6.393-12.024 16.145-15.768 29.165-8.845"/>
    </g>
</svg>
