<svg width="168" height="40"
    xmlns="http://www.w3.org/2000/svg"
    xmlns:xlink="http://www.w3.org/1999/xlink">
    <defs>
        <path d="M7.144 3.228c-1.761.027-5.011.89-6.496 6.914-.646 2.625-.896 5.361-.343 8.618.51 3.003 1.415 5.596 2.025 7.024.21.493.535 1.006.787 1.322.723.909 1.927.85 2.434.603.551-.27 1.185-.921.955-2.408-.11-.72-.43-1.77-.61-2.355-.553-1.793-1.288-3.956-1.352-5.498-.086-2.061.732-2.331 1.275-2.45.914-.2 1.68.797 2.408 2.046.868 1.491 2.356 4.133 3.57 6.151 1.096 1.822 3.12 3.772 6.367 3.638 3.312-.136 5.752-1.392 7.01-5.344.94-2.957 1.582-5.166 2.614-7.429 1.187-2.602 2.77-3.995 4.103-3.57 1.238.396 1.547 1.598 1.562 3.365.013 1.563-.169 3.286-.31 4.551-.052.46-.145 1.384-.107 1.897.075 1.009.514 2.016 1.657 2.177 1.218.172 2.195-.795 2.585-1.964.154-.46.285-1.165.356-1.665.358-2.526.45-4.224.29-6.808-.19-3.022-.784-5.778-1.823-8.162C35.108 1.6 33.512.139 31.466.009c-2.265-.143-4.864 1.351-6.228 4.248-1.257 2.67-2.262 5.412-2.872 6.811-.62 1.419-1.528 2.293-2.926 2.44-1.71.178-3.182-1.054-4.26-2.812-.94-1.532-2.805-4.45-3.802-5.43-.936-.92-2.007-2.073-4.234-2.038z" id="a"/>
    </defs>
    <g fill="none" fill-rule="evenodd">
        <path d="M116.303 13.846h-2.66c-.222 0-.327.085-.327.302l.003 14.922c0 .216.105.302.326.302h2.66c.222 0 .328-.086.328-.302l-.004-14.922c0-.217-.103-.302-.326-.302zm-24.658 10.02c.08-.76.143-1.39.143-2.264 0-.878-.063-1.507-.143-2.267-.257-2.518-1.526-2.911-3.568-2.911h-.085c-2.042 0-3.313.393-3.567 2.91-.08.761-.143 1.39-.143 2.268 0 .875.063 1.504.143 2.265.254 2.517 1.525 2.91 3.567 2.91h.085c2.042 0 3.31-.393 3.568-2.91zm2.988 2.018c-.807 2.696-2.937 3.773-6.392 3.773h-.412c-3.454 0-5.585-1.077-6.396-3.773-.316-1.056-.496-2.272-.496-4.282 0-2.011.18-3.23.496-4.284.811-2.698 2.942-3.77 6.396-3.77h.412c3.455 0 5.585 1.072 6.392 3.77.32 1.054.499 2.273.499 4.284 0 2.01-.179 3.226-.5 4.282zM72.03 13.547h-.803c-2.31 0-3.843.614-4.587 1.525h-.018c-.743-.911-2.372-1.525-4.682-1.525h-.825c-2.604 0-4.738.905-5.596 2.763-.369.799-.49 1.87-.49 3.028v9.68c0 .211.125.354.343.354h2.622c.216 0 .34-.143.34-.354l.005-8.063c0-1.154.027-1.993.086-2.508.152-1.353 1.155-2.01 3.07-2.01h.218c1.913 0 2.965.657 3.114 2.01.058.515.087 1.354.087 2.508v8.065c0 .213.13.352.347.352h2.629c.215 0 .338-.167.338-.38l.004-8.037c0-1.154.027-1.993.085-2.508.15-1.353 1.2-2.01 3.115-2.01h.218c1.916 0 2.918.657 3.07 2.01.056.515.082 1.354.082 2.508v8.065c0 .22.129.352.345.352h2.629c.216 0 .34-.167.34-.38v-9.654c0-1.158-.124-2.23-.493-3.028-.855-1.858-2.992-2.763-5.593-2.763zm68.054 15.825c.228 0 .352-.122.352-.323v-2.215c0-.2-.124-.323-.352-.323h-.352c-1.056 0-1.705-.254-2.101-.672-.525-.553-.634-1.451-.634-2.514v-6.73h2.926c.22 0 .33-.084.33-.3v-2.15c0-.217-.11-.3-.33-.3h-2.926v-2.788c0-.217-.11-.304-.331-.304h-2.66c-.221 0-.323.087-.323.304v12.448c0 2.166.43 3.549 1.384 4.495.893.887 2.29 1.372 4.313 1.372h.704zm-16.367-6.963c.717.266 1.313.484 2.023.737 1.522.54 2.172.97 2.172 1.9 0 1.202-1.013 1.84-3.308 1.84h-.082c-1.294 0-2.778-.254-4.081-.67-.27-.087-.417.014-.417.287v1.982c0 .25.041.4.32.497 1.245.429 2.962.67 4.363.67h.106c4.076 0 6.285-1.811 6.285-4.744v-.043c0-1.13-.371-2.155-1.065-2.835-.68-.67-1.712-1.188-3.306-1.78a440.39 440.39 0 0 0-2.098-.776c-1.326-.483-1.698-.938-1.698-1.619 0-1.126 1.104-1.567 2.88-1.567l.135.001c1.025 0 2.266.147 3.772.42.279.052.436-.01.436-.297v-2.037c0-.268-.072-.344-.35-.403-.979-.207-2.754-.425-3.75-.425h-.24c-2.079 0-3.623.387-4.65 1.283-.836.728-1.394 1.828-1.394 3.144l-.002.093c0 1.22.424 2.201 1.147 2.871.677.626 1.588 1.02 2.802 1.471zm-21.388 6.963h2.88c.248 0 .358-.08.46-.27 1.866-3.511 4.719-9.51 4.913-14.951.008-.217-.083-.31-.363-.31l-2.684.002c-.314 0-.4.099-.417.378-.123 1.983-.544 4.285-1.155 6.34-.63 2.126-1.432 4.15-2.201 5.654-.769-1.504-1.572-3.528-2.201-5.654-.614-2.07-1.039-4.387-1.158-6.378-.018-.284-.17-.34-.446-.34h-2.7c-.286 0-.366.133-.345.422.38 5.331 2.036 9.471 4.913 14.849.1.188.253.258.504.258zm63.777-15.826h-1.78c-2.56 0-4.556.886-5.413 2.742-.37.8-.485 1.871-.485 3.029v9.753c0 .216.106.302.327.302h2.66c.22 0 .32-.086.32-.302v-8.16c0-1.152.024-1.992.084-2.509.15-1.351.97-1.99 2.883-1.99h1.415c.23 0 .328-.116.328-.338v-2.19c0-.226-.11-.337-.34-.337zm-13.824 10.25v-1.238c-.907-.238-2-.334-2.957-.334h-.282c-1.263 0-2.003.213-2.506.646-.428.37-.704.993-.704 1.693 0 1.53 1.156 2.327 3.144 2.327h.523c1.077 0 1.871-.243 2.32-.757.422-.487.462-1.172.462-2.336zm.276-9.613c1.842.794 3.03 2.2 3.03 5.241v4.448c0 2.184-.433 3.55-1.55 4.473-.97.803-2.583 1.308-4.28 1.308h-.77c-4.317 0-6.444-1.898-6.444-4.978v-.13c0-1.53.56-2.728 1.413-3.523 1.109-1.035 2.848-1.482 4.699-1.482h.295c1.111 0 2.324.14 3.33.352v-.428c0-1.446-.33-2.112-.995-2.559-.667-.45-1.774-.575-3.146-.575h-.136c-.968 0-2.229.127-3.451.311-.28.041-.409-.044-.409-.293v-1.987c0-.27.092-.391.328-.433 1.392-.251 2.838-.38 3.899-.38h.213c1.74 0 3.088.254 3.974.635z" fill="#00A9E0"/>
        <g transform="translate(0 6)">
            <mask id="b" fill="#fff">
                <use xlink:href="#a"/>
            </mask>
            <path fill="#00A9E0" mask="url(#b)" d="M-1.727 29.587h41.454V-1.72H-1.727z"/>
        </g>
    </g>
</svg>
